<svg id="svg" xmlns="http://www.w3.org/2000/svg" xmlns:xlink="http://www.w3.org/1999/xlink" width="500" height="579.3602896801448" viewBox="0, 0, 500,579.3602896801448"><g id="svgg"><path id="path0" d="M451.871 0.212 C 403.960 1.302,343.445 8.984,290.736 20.665 C 241.784 31.513,190.780 47.118,153.107 62.773 L 147.040 65.293 146.818 246.814 C 146.695 346.650,146.563 428.367,146.524 428.408 C 146.485 428.448,145.319 428.067,143.933 427.561 C 125.925 420.989,103.265 419.722,82.378 424.119 C 31.691 434.789,-4.395 475.178,0.283 516.004 C 5.554 562.009,58.694 589.549,115.809 575.877 C 155.704 566.327,187.364 536.626,193.153 503.319 C 193.750 499.881,193.755 498.522,193.728 356.504 L 193.701 213.158 195.296 212.634 C 259.260 191.640,343.945 174.250,418.075 166.887 C 430.227 165.680,448.439 164.156,450.739 164.153 L 451.720 164.152 451.720 264.786 C 451.720 320.134,451.650 365.419,451.564 365.419 C 451.478 365.419,449.768 364.871,447.764 364.201 C 404.320 349.679,350.177 365.426,322.713 400.573 C 285.458 448.250,312.745 506.568,376.584 515.708 C 432.886 523.769,488.928 489.486,499.189 440.706 L 499.824 437.689 499.914 219.042 L 500.004 0.395 495.881 0.198 C 492.059 0.014,460.098 0.025,451.871 0.212 " stroke="none" fill="#000000" fill-rule="evenodd"></path></g></svg>